<svg xmlns="http://www.w3.org/2000/svg" width="23.748" height="23.748" viewBox="0 0 23.748 23.748">
  <path id="check-square-regular" d="M21.2,32H2.544A2.544,2.544,0,0,0,0,34.544V53.2a2.544,2.544,0,0,0,2.544,2.544H21.2A2.544,2.544,0,0,0,23.748,53.2V34.544A2.544,2.544,0,0,0,21.2,32Zm0,21.2H2.544V34.544H21.2ZM19.3,40.39l-9.149,9.075a.636.636,0,0,1-.9,0L4.442,44.61a.636.636,0,0,1,0-.9l1.2-1.195a.636.636,0,0,1,.9,0l3.169,3.2,7.493-7.433a.636.636,0,0,1,.9,0l1.195,1.2a.636.636,0,0,1,0,.9Z" transform="translate(0 -32)" fill="#005eef"/>
</svg>
