<svg xmlns="http://www.w3.org/2000/svg" width="23.642" height="23.642" viewBox="0 0 23.642 23.642">
  <path id="check-square-solid" d="M21.109,55.642H2.533A2.533,2.533,0,0,1,0,53.109V34.533A2.533,2.533,0,0,1,2.533,32H21.109a2.533,2.533,0,0,1,2.533,2.533V53.109A2.533,2.533,0,0,1,21.109,55.642Zm-10.8-5.175,9.71-9.71a.844.844,0,0,0,0-1.194l-1.194-1.194a.844.844,0,0,0-1.194,0L9.71,46.288l-3.7-3.7a.844.844,0,0,0-1.194,0L3.625,43.785a.844.844,0,0,0,0,1.194l5.488,5.488A.844.844,0,0,0,10.307,50.467Z" transform="translate(0 -32)" fill="#005eef"/>
</svg>
