<svg xmlns="http://www.w3.org/2000/svg" xmlns:xlink="http://www.w3.org/1999/xlink" width="35" height="34" viewBox="0 0 35 34">
  <defs>
    <linearGradient id="linear-gradient" x1="0.148" x2="0.5" y2="0.5" gradientUnits="objectBoundingBox">
      <stop offset="0" stop-color="#00a2ff"/>
      <stop offset="1" stop-color="#005eef"/>
    </linearGradient>
  </defs>
  <rect id="Rectangle_17" data-name="Rectangle 17" width="35" height="34" rx="7" fill="url(#linear-gradient)"/>
  <path id="sun-regular" d="M21.964,9.838l-2.658-1.8.609-3.155a1.8,1.8,0,0,0-2.1-2.111l-3.151.609L12.866.718a1.863,1.863,0,0,0-2.978,0L8.093,3.38,4.947,2.772A1.8,1.8,0,0,0,2.84,4.883l.609,3.155L.791,9.838a1.8,1.8,0,0,0,0,2.982l2.658,1.8L2.84,17.776a1.8,1.8,0,0,0,2.107,2.107l3.147-.609,1.8,2.662a1.794,1.794,0,0,0,2.978,0l1.8-2.662,3.151.609a1.773,1.773,0,0,0,1.613-.493,1.8,1.8,0,0,0,.493-1.613l-.609-3.155,2.658-1.8a1.8,1.8,0,0,0,0-2.987Zm-5.018,3.8.782,4.053-4.044-.782-2.307,3.418L9.071,16.909l-4.04.782.782-4.053L2.4,11.327,5.813,9.016,5.031,4.963l4.044.782,2.3-3.413,2.307,3.418,4.044-.782-.782,4.049,3.413,2.311-3.413,2.316ZM11.378,6.732A4.622,4.622,0,1,0,16,11.354,4.63,4.63,0,0,0,11.378,6.732Zm0,7.111a2.489,2.489,0,1,1,2.489-2.489A2.49,2.49,0,0,1,11.378,13.843Z" transform="translate(6.12 5.647)" fill="#fff"/>
</svg>
