<svg xmlns="http://www.w3.org/2000/svg" xmlns:xlink="http://www.w3.org/1999/xlink" width="35" height="34" viewBox="0 0 35 34">
  <defs>
    <linearGradient id="linear-gradient" x1="0.148" x2="0.5" y2="0.5" gradientUnits="objectBoundingBox">
      <stop offset="0" stop-color="#00a2ff"/>
      <stop offset="1" stop-color="#005eef"/>
    </linearGradient>
  </defs>
  <rect id="Rectangle_14" data-name="Rectangle 14" width="35" height="34" rx="7" fill="url(#linear-gradient)"/>
  <path id="calendar-alt-regular" d="M5.818,11.322H4.246a.473.473,0,0,1-.472-.472V9.277a.473.473,0,0,1,.472-.472H5.818a.473.473,0,0,1,.472.472V10.85A.473.473,0,0,1,5.818,11.322Zm4.246-.472V9.277a.473.473,0,0,0-.472-.472H8.019a.473.473,0,0,0-.472.472V10.85a.473.473,0,0,0,.472.472H9.592A.473.473,0,0,0,10.064,10.85Zm3.774,0V9.277a.473.473,0,0,0-.472-.472H11.793a.473.473,0,0,0-.472.472V10.85a.473.473,0,0,0,.472.472h1.572A.473.473,0,0,0,13.837,10.85Zm-3.774,3.774V13.051a.473.473,0,0,0-.472-.472H8.019a.473.473,0,0,0-.472.472v1.572a.473.473,0,0,0,.472.472H9.592A.473.473,0,0,0,10.064,14.624Zm-3.774,0V13.051a.473.473,0,0,0-.472-.472H4.246a.473.473,0,0,0-.472.472v1.572a.473.473,0,0,0,.472.472H5.818A.473.473,0,0,0,6.29,14.624Zm7.548,0V13.051a.473.473,0,0,0-.472-.472H11.793a.473.473,0,0,0-.472.472v1.572a.473.473,0,0,0,.472.472h1.572A.473.473,0,0,0,13.837,14.624ZM17.611,4.4V18.24a1.887,1.887,0,0,1-1.887,1.887H1.887A1.887,1.887,0,0,1,0,18.24V4.4A1.887,1.887,0,0,1,1.887,2.516H3.774V.472A.473.473,0,0,1,4.246,0H5.818A.473.473,0,0,1,6.29.472V2.516h5.032V.472A.473.473,0,0,1,11.793,0h1.572a.473.473,0,0,1,.472.472V2.516h1.887A1.887,1.887,0,0,1,17.611,4.4ZM15.724,18V6.29H1.887V18a.237.237,0,0,0,.236.236H15.489A.237.237,0,0,0,15.724,18Z" transform="translate(8.739 7)" fill="#fff"/>
</svg>
